# Blender v2.93.1 OBJ File: ''
# www.blender.org
mtllib 1x1LegoBrick.mtl
o LEGO_1X1-L_simple
v 4.985476 0.000000 -4.997875
v 4.985476 9.598000 -4.997875
v 4.985476 0.000000 5.002124
v -5.014524 9.598000 5.002124
v -5.014524 9.598000 -4.997875
v -5.014524 0.000000 5.002124
v -5.014524 0.000000 -4.997875
v 2.835476 11.200000 0.932128
v 1.342977 11.200000 2.677129
v 2.497977 11.200000 1.639626
v 2.980476 11.200000 0.162127
v -1.652024 11.200000 2.517126
v -2.247024 11.200000 2.009628
v 2.920476 11.200000 -0.617874
v -2.689525 11.200000 1.362126
v 4.985476 9.598000 5.002124
v 0.605477 11.200000 2.939627
v -0.174524 11.200000 2.999628
v -0.944525 11.200000 2.854626
v 1.990477 11.200000 2.234628
v 2.920476 9.598000 -0.617874
v -3.017025 0.000000 3.004625
v 2.985476 0.000000 3.004625
v 2.985476 0.000000 -2.997873
v -3.017025 0.000000 -2.997873
v 2.980476 9.598000 0.162127
v 1.620476 9.598000 -2.510373
v 2.215477 9.598000 -2.002876
v 0.735477 9.598000 -1.295373
v 0.735477 9.500000 -1.295373
v 1.045476 9.500000 -1.057875
v 1.045476 9.598000 -1.057875
v -0.404524 9.598000 -1.445372
v -0.404524 9.500000 -1.445372
v -0.014524 9.500000 -1.497872
v -0.014524 9.598000 -1.497872
v 2.657976 11.200000 -1.355374
v 1.282977 9.598000 -0.747874
v 1.432976 9.598000 -0.385373
v 0.372977 9.598000 -1.445372
v -1.464524 9.598000 -0.385373
v -1.474349 9.500000 -0.312874
v -1.464524 9.500000 -0.385373
v 2.657976 9.598000 -1.355374
v 0.310477 9.500000 -1.453836
v 0.372977 9.500000 -1.445372
v 2.215477 11.200000 -2.002876
v -1.314524 9.598000 -0.747874
v -1.077024 9.598000 -1.057875
v -0.767024 9.598000 -1.295373
v 1.620476 11.200000 -2.510373
v 0.912976 9.598000 -2.847874
v 0.912976 11.200000 -2.847874
v -2.529524 9.598000 -1.632874
v -2.867024 9.598000 -0.925372
v -2.867024 11.200000 -0.925372
v -2.529524 11.200000 -1.632874
v -3.012024 11.200000 -0.155375
v -1.374524 9.598000 -2.670371
v -0.637024 9.598000 -2.932875
v 0.142977 9.598000 -2.992875
v 0.142977 11.200000 -2.992875
v -0.637024 11.200000 -2.932875
v -3.012024 9.598000 -0.155375
v -2.022024 9.598000 -2.227871
v -1.374524 11.200000 -2.670371
v -1.077024 9.598000 1.064627
v -0.767024 9.598000 1.302125
v -0.404524 9.598000 1.452124
v 2.985476 7.900001 3.004625
v -3.017025 7.900001 3.004625
v -3.017025 7.900001 -2.997873
v -2.247024 9.598000 2.009628
v -2.249524 9.598000 2.005966
v 1.342977 9.598000 2.677129
v 0.605477 9.598000 2.939627
v 1.972189 9.598000 2.247126
v -1.652024 9.598000 2.517126
v -1.968574 9.598000 2.247126
v -0.944525 9.598000 2.854626
v -0.174524 9.598000 2.999628
v -2.022024 11.200000 -2.227871
v -2.952025 11.200000 0.624626
v 2.870476 9.598000 2.247126
v 1.282977 9.500000 -0.747874
v 1.432976 9.500000 -0.385373
v 1.442802 9.500000 -0.312874
v -2.249524 9.598000 2.247126
v -2.689525 9.598000 1.362126
v -2.952025 9.598000 0.624626
v 1.120176 9.500000 0.967128
v 1.045476 9.500000 1.064627
v 0.735477 9.500000 1.302125
v 1.045476 9.598000 1.064627
v 0.735477 9.598000 1.302125
v 0.310477 9.500000 1.460588
v -0.767024 9.500000 -1.295373
v -1.077024 9.500000 -1.057875
v -1.314524 9.500000 -0.747874
v 2.835476 9.598000 0.932128
v 0.372977 9.500000 1.452124
v 0.372977 9.598000 1.452124
v -0.014524 9.598000 1.504624
v 2.818776 9.598000 0.967128
v 2.497977 9.598000 1.639626
v 1.990477 9.598000 2.234628
v 1.485476 9.598000 0.002124
v 1.282977 9.598000 0.754626
v 1.282977 9.500000 0.754626
v 1.432976 9.500000 0.392125
v 1.485476 9.500000 0.002124
v 1.432976 9.598000 0.392125
v -1.464524 9.500000 0.392125
v -1.517023 9.500000 0.002124
v -1.314524 9.500000 0.754626
v -1.151725 9.500000 0.967128
v -1.314524 9.598000 0.754626
v -1.464524 9.598000 0.392125
v -1.517023 9.598000 0.002124
v -1.077024 9.500000 1.064627
v -0.767024 9.500000 1.302125
v -0.404524 9.500000 1.452124
v -0.014524 9.500000 1.504624
v 2.985476 7.900001 -2.997873
vn 1.0000 0.0000 0.0000
vn -1.0000 0.0000 0.0000
vn 0.0000 1.0000 0.0000
vn 0.0000 0.0000 1.0000
vn 0.9971 0.0000 -0.0767
vn 0.0000 -1.0000 0.0000
vn -0.6082 0.0000 0.7938
vn 0.1334 0.0000 0.9911
vn 0.9421 0.0000 -0.3353
vn 0.9909 0.0000 0.1343
vn -0.1342 0.0000 0.9910
vn 0.8256 0.0000 -0.5642
vn -0.3823 0.0000 0.9240
vn 0.6489 0.0000 -0.7608
vn -0.1343 0.0000 0.9909
vn 0.4306 0.0000 -0.9026
vn -0.9026 0.0000 -0.4306
vn -0.9827 0.0000 -0.1851
vn -0.0767 0.0000 -0.9971
vn 0.1851 0.0000 -0.9827
vn -0.3353 0.0000 -0.9421
vn 0.0000 0.0000 -1.0000
vn -0.8259 0.0000 0.5638
vn 0.3353 0.0000 0.9421
vn 0.5642 0.0000 0.8256
vn -0.6489 0.0000 0.7608
vn -0.4306 0.0000 0.9026
vn -0.1851 0.0000 0.9827
vn 0.0767 0.0000 0.9971
vn -0.7938 0.0000 0.6082
vn -0.5642 0.0000 -0.8256
vn -0.9240 0.0000 0.3824
vn -0.7608 0.0000 -0.6489
vn -0.9909 0.0000 0.1343
vn -0.9421 0.0000 0.3353
vn -0.8256 0.0000 0.5642
vn -0.7938 0.0000 -0.6082
vn -0.6082 0.0000 -0.7938
vn 0.9827 0.0000 0.1851
vn -0.3823 0.0000 -0.9240
vn 0.9240 0.0000 0.3824
vn -0.1342 0.0000 -0.9910
vn -0.1343 0.0000 -0.9909
vn 0.7938 0.0000 0.6082
vn 0.6082 0.0000 0.7938
vn 0.3823 0.0000 0.9240
vn 0.9026 0.0000 0.4305
vn 0.7608 0.0000 0.6489
vn 0.9026 -0.0000 0.4306
vn -0.9909 0.0000 0.1342
vn -0.9911 0.0000 -0.1334
vn -0.9240 0.0000 -0.3824
vn 0.7938 0.0000 -0.6082
vn 0.9240 0.0000 -0.3824
vn 0.9025 0.0000 0.4306
vn 0.9911 0.0000 -0.1334
vn 0.9909 0.0000 0.1342
vn 0.1334 0.0000 -0.9911
vn 0.3823 0.0000 -0.9240
vn 0.6082 0.0000 -0.7938
vn -0.9971 0.0000 0.0767
usemtl None
s off
f 1//1 2//1 3//1
f 4//2 5//2 6//2
f 7//2 6//2 5//2
f 8//3 9//3 10//3
f 11//3 9//3 8//3
f 12//3 11//3 13//3
f 11//3 14//3 15//3
f 4//4 6//4 16//4
f 17//3 11//3 18//3
f 19//3 18//3 11//3
f 9//3 11//3 17//3
f 20//3 10//3 9//3
f 12//3 19//3 11//3
f 13//3 11//3 15//3
f 14//5 11//5 21//5
f 3//4 16//4 6//4
f 6//6 22//6 23//6
f 6//6 23//6 3//6
f 24//6 25//6 7//6
f 26//3 2//3 21//3
f 1//6 3//6 24//6
f 7//6 1//6 24//6
f 23//6 24//6 3//6
f 22//6 6//6 25//6
f 7//6 25//6 6//6
f 27//3 28//3 2//3
f 16//1 3//1 2//1
f 29//7 30//7 31//7
f 29//7 31//7 32//7
f 33//8 34//8 35//8
f 33//8 35//8 36//8
f 21//9 37//9 14//9
f 29//6 32//6 38//6
f 39//6 40//6 38//6
f 29//6 38//6 40//6
f 41//10 42//10 43//10
f 28//3 44//3 2//3
f 40//11 45//11 46//11
f 47//12 37//12 28//12
f 46//13 30//13 29//13
f 46//13 29//13 40//13
f 21//3 2//3 44//3
f 39//6 41//6 48//6
f 39//6 48//6 49//6
f 39//6 49//6 50//6
f 39//6 50//6 33//6
f 39//6 33//6 36//6
f 39//6 36//6 40//6
f 28//14 27//14 51//14
f 28//14 51//14 47//14
f 44//9 37//9 21//9
f 2//3 52//3 27//3
f 40//15 36//15 45//15
f 35//15 45//15 36//15
f 27//16 52//16 53//16
f 27//16 53//16 51//16
f 37//12 44//12 28//12
f 54//17 55//17 56//17
f 54//17 56//17 57//17
f 58//18 56//18 55//18
f 59//3 60//3 5//3
f 2//3 5//3 61//3
f 62//19 61//19 60//19
f 62//19 60//19 63//19
f 5//3 4//3 64//3
f 5//3 54//3 65//3
f 59//3 5//3 65//3
f 60//3 61//3 5//3
f 54//3 5//3 55//3
f 5//3 64//3 55//3
f 52//3 2//3 61//3
f 53//20 52//20 62//20
f 11//5 26//5 21//5
f 66//21 63//21 60//21
f 67//6 39//6 68//6
f 69//6 68//6 39//6
f 70//6 71//6 72//6
f 1//22 7//22 2//22
f 5//22 2//22 7//22
f 73//23 13//23 74//23
f 75//24 9//24 17//24
f 75//24 17//24 76//24
f 75//25 77//25 9//25
f 20//25 9//25 77//25
f 22//22 70//22 23//22
f 78//26 12//26 79//26
f 51//3 53//3 15//3
f 53//3 62//3 15//3
f 47//3 51//3 15//3
f 62//3 63//3 15//3
f 37//3 47//3 15//3
f 80//27 19//27 12//27
f 80//27 12//27 78//27
f 63//3 66//3 15//3
f 71//22 70//22 22//22
f 81//28 18//28 19//28
f 81//28 19//28 80//28
f 22//1 72//1 71//1
f 17//29 18//29 81//29
f 17//29 81//29 76//29
f 66//3 82//3 15//3
f 82//3 57//3 15//3
f 57//3 56//3 15//3
f 14//3 37//3 15//3
f 56//3 58//3 15//3
f 83//3 15//3 58//3
f 84//3 77//3 16//3
f 76//3 16//3 75//3
f 72//4 25//4 24//4
f 61//20 62//20 52//20
f 75//3 16//3 77//3
f 79//3 4//3 78//3
f 25//1 72//1 22//1
f 78//3 4//3 80//3
f 31//3 30//3 85//3
f 30//3 46//3 85//3
f 86//3 85//3 46//3
f 87//3 86//3 46//3
f 87//3 46//3 45//3
f 80//3 4//3 81//3
f 60//21 59//21 66//21
f 4//3 16//3 81//3
f 31//30 85//30 38//30
f 31//30 38//30 32//30
f 59//31 65//31 82//31
f 59//31 82//31 66//31
f 76//3 81//3 16//3
f 38//32 85//32 86//32
f 38//32 86//32 39//32
f 57//33 82//33 54//33
f 65//33 54//33 82//33
f 79//3 88//3 4//3
f 4//3 89//3 90//3
f 4//3 90//3 64//3
f 39//34 86//34 87//34
f 83//35 90//35 89//35
f 83//35 89//35 15//35
f 88//3 74//3 4//3
f 89//3 4//3 74//3
f 89//36 74//36 15//36
f 91//3 45//3 92//3
f 93//3 92//3 45//3
f 64//18 58//18 55//18
f 91//37 92//37 94//37
f 94//38 92//38 93//38
f 94//38 93//38 95//38
f 34//3 96//3 35//3
f 97//3 96//3 34//3
f 98//3 96//3 97//3
f 99//3 96//3 98//3
f 43//3 96//3 99//3
f 42//3 96//3 43//3
f 8//39 100//39 11//39
f 95//40 93//40 101//40
f 95//40 101//40 102//40
f 48//41 41//41 43//41
f 48//41 43//41 99//41
f 100//3 16//3 26//3
f 102//42 101//42 96//42
f 102//43 96//43 103//43
f 49//44 48//44 99//44
f 49//44 99//44 98//44
f 2//3 26//3 16//3
f 84//3 16//3 104//3
f 100//3 104//3 16//3
f 104//3 105//3 84//3
f 105//3 106//3 84//3
f 50//45 49//45 98//45
f 50//45 98//45 97//45
f 33//46 50//46 97//46
f 33//46 97//46 34//46
f 105//47 104//47 10//47
f 77//3 84//3 106//3
f 26//39 11//39 100//39
f 103//6 107//6 102//6
f 102//6 108//6 95//6
f 20//48 106//48 105//48
f 20//48 105//48 10//48
f 101//3 93//3 45//3
f 45//3 91//3 109//3
f 45//3 109//3 110//3
f 45//3 110//3 111//3
f 45//3 111//3 87//3
f 8//49 10//49 104//49
f 94//37 108//37 91//37
f 109//37 91//37 108//37
f 77//25 106//25 20//25
f 12//26 13//26 79//26
f 73//26 79//26 13//26
f 103//6 69//6 107//6
f 94//6 95//6 108//6
f 112//6 102//6 107//6
f 108//6 102//6 112//6
f 15//36 74//36 13//36
f 107//34 39//34 87//34
f 107//50 87//50 111//50
f 112//51 107//51 111//51
f 112//51 111//51 110//51
f 113//3 96//3 114//3
f 115//3 96//3 113//3
f 116//3 96//3 115//3
f 114//3 96//3 42//3
f 35//3 96//3 45//3
f 110//52 109//52 108//52
f 110//52 108//52 112//52
f 115//53 117//53 116//53
f 67//53 116//53 117//53
f 117//54 115//54 113//54
f 117//54 113//54 118//54
f 104//55 100//55 8//55
f 118//56 113//56 114//56
f 118//56 114//56 119//56
f 119//57 114//57 42//57
f 119//10 42//10 41//10
f 118//6 39//6 117//6
f 119//6 39//6 118//6
f 41//6 39//6 119//6
f 67//6 117//6 39//6
f 39//6 107//6 69//6
f 116//3 120//3 121//3
f 116//3 121//3 122//3
f 116//3 122//3 123//3
f 101//3 45//3 96//3
f 123//3 96//3 116//3
f 123//58 122//58 69//58
f 123//58 69//58 103//58
f 69//59 122//59 121//59
f 69//59 121//59 68//59
f 68//60 121//60 120//60
f 68//60 120//60 67//60
f 67//53 120//53 116//53
f 64//61 90//61 83//61
f 64//61 83//61 58//61
f 103//43 96//43 123//43
f 79//3 73//3 88//3
f 74//3 88//3 73//3
f 72//6 124//6 70//6
f 124//4 72//4 24//4
f 23//2 70//2 24//2
f 124//2 24//2 70//2
